<svg xmlns="http://www.w3.org/2000/svg" xmlns:xlink="http://www.w3.org/1999/xlink" xmlns:sketch="http://www.bohemiancoding.com/sketch/ns" width="519" height="458" viewBox="0 0 519 458" version="1.1">
  <title>
    Artboard 1
  </title>
  <desc>
    Created with Sketch.
  </desc>
  <g id="Page-1" stroke="none" stroke-width="1" fill="none" fill-rule="evenodd" sketch:type="MSPage">
    <g id="Artboard-1" sketch:type="MSArtboardGroup" stroke="#979797" fill="#000000">
      <path d="M39.7 198.86C34.28 197.61 27.55 203.09 27.55 203.09L10.43 215.69 0.5 231.55 7.39 246.35C7.39 246.35 22.18 253.29 28.67 251.79 35.16 250.3 37.6 239.38 37.6 239.38L55.91 238.35 102.88 224.52 138.49 214.85 154.13 212.11 149.13 222.81C149.13 222.81 132.22 253.98 126.27 269.57 119.44 287.47 110.77 323.26 110.77 323.26 110.77 323.26 103.96 346.2 112.77 377.96 121.58 409.72 147.04 434.93 164.96 442.08 182.87 449.23 192.26 456.68 246.5 456.68 300.74 456.68 359.55 432.93 359.55 432.93 359.55 432.93 416.91 409 452.67 385.63 488.43 362.27 504.27 326.84 504.27 326.84 504.27 326.84 525.61 254.81 514.72 251 503.82 247.19 494.89 253.48 494.89 253.48L504.82 265.38C501.27 275.82 501.72 286.27 498.16 296.71 494.62 307.11 483.55 327.91 483.55 327.91 483.55 327.91 477.77 348.96 434.17 375.13 390.58 401.31 336.8 415.43 336.8 415.43 336.8 415.43 267.2 435.93 233.01 424.03 198.82 412.13 199.23 415.43 174.41 390.93 149.58 366.43 153.29 345.24 150.42 322.98 147.55 300.72 156.54 277.69 156.54 277.69L170.73 230.66 177.66 211.31 204.23 206.61 206.49 218.69 198.82 229.59C198.82 229.59 196.65 240.29 201.23 245.19 205.82 250.09 217.58 249.64 217.58 249.64L231.73 236.78 239.66 222.14 237.7 187.45C237.7 187.45 243.64 170.12 261.87 144.2 280.09 118.27 290.93 109.45 303.93 93.23 316.94 77.01 324.45 73.59 332.14 61.54 339.83 49.49 342.55 34.3 342.55 34.3 342.55 34.3 347.58 9.07 344.04 3.61 340.5-1.84 323.43 4.87 323.43 4.87L279.66 42.97 225.51 108.21 166.91 189.35 103.96 206.62 43.39 228.64 53.07 209C53.07 209 45.13 200.12 39.7 198.86ZM189.66 185.14C189.66 185.14 206.25 154.4 229.09 121.59 251.94 88.78 276.25 63.97 284.64 56.66 293.03 49.36 301.13 49.65 307.02 49.7 312.91 49.74 318.7 51.99 318.63 56.92 318.55 61.85 309.76 70.82 309.76 70.82L264.28 123.75C264.28 123.75 230 172.97 225.44 178.64 220.88 184.31 219.26 185 212.47 185.38 205.69 185.76 189.66 185.14 189.66 185.14Z" id="Path-1" sketch:type="MSShapeGroup"/>
    </g>
  </g>
</svg>
