<svg enable-background="new 209.9 113.3 75.8 76.2" viewBox="209.9 113.3 75.8 76.2" xmlns="http://www.w3.org/2000/svg"><path d="m280.1 113.3h-64.6c-3.1 0-5.6 2.4-5.6 5.5v65.3c0 3 2.5 5.5 5.6 5.5h64.6c3.1 0 5.6-2.4 5.6-5.5v-65.3c0-3-2.6-5.5-5.6-5.5m-47.2 63.9h-11.4v-34.4h11.4zm-5.8-39.2c-3.9 0-6.4-2.6-6.4-5.9 0-3.4 2.6-5.9 6.5-5.9s6.3 2.6 6.4 5.9c0 3.3-2.5 5.9-6.5 5.9m47 39.2h-11.4v-18.4c0-4.6-1.7-7.8-5.8-7.8-3.2 0-5 2.1-5.9 4.2-.3.7-.4 1.8-.4 2.8v19.2h-11.4s.2-31.2 0-34.4h11.4v4.9c1.5-2.3 4.2-5.7 10.3-5.7 7.5 0 13.2 4.9 13.2 15.5z" fill="#069"/></svg>