<svg enable-background="new 0 30 300 240" viewBox="0 30 300 240" xmlns="http://www.w3.org/2000/svg"><path d="m297.7 58.4c-10.9 4.8-22.5 8.1-34.8 9.5 12.5-7.5 22.1-19.4 26.6-33.5-11.7 6.9-24.7 12-38.5 14.7-11-11.7-26.8-19.1-44.2-19.1-33.5 0-60.6 27.1-60.6 60.6 0 4.7.5 9.4 1.6 13.8-50.4-2.5-95-26.6-124.9-63.3-5.2 8.9-8.2 19.4-8.2 30.5 0 21 10.7 39.6 27 50.4-9.9-.3-19.3-3-27.4-7.6v.8c0 29.4 20.9 53.8 48.6 59.4-5.1 1.4-10.4 2.1-16 2.1-3.9 0-7.7-.4-11.4-1.1 7.7 24.1 30.1 41.6 56.6 42.1-20.7 16.3-46.9 25.9-75.2 25.9-4.9 0-9.7-.3-14.5-.8 26.8 17.2 58.6 27.2 92.8 27.2 111.4 0 172.4-92.3 172.4-172.4 0-2.6-.1-5.2-.2-7.8 11.9-8.6 22.1-19.2 30.3-31.4" fill="#3aaae1"/></svg>